<svg width="295" height="382" viewBox="0 0 295 382" fill="none" xmlns="http://www.w3.org/2000/svg">
<path d="M29.8125 223.875L31 231.062C31 230.896 32 230.062 34 228.562C36 227.062 38.375 225.708 41.125 224.5C43.9167 223.25 46.8542 222.625 49.9375 222.625C58.6458 222.625 65.25 225.625 69.75 231.625C74.2917 237.625 76.5625 245.917 76.5625 256.5C76.5625 268.542 73.6875 277.854 67.9375 284.438C62.2292 290.979 53.875 294.25 42.875 294.25C39.2917 294.25 35.6667 293.833 32 293V309.25L44.1875 312.188V322.438H2.8125V312.188L12.8125 309.25V237.938L2.5625 234.75V224.5L29.8125 223.875ZM32 277.625C34.9167 278.917 38.25 279.562 42 279.562C47.2917 279.562 51.0625 277.812 53.3125 274.312C55.5625 270.812 56.6875 265.646 56.6875 258.812C56.6875 252.062 55.6875 246.896 53.6875 243.312C51.6875 239.729 48.4167 237.938 43.875 237.938C41.4167 237.938 39.3125 238.458 37.5625 239.5C35.8125 240.542 34.4375 241.688 33.4375 242.938C32.4792 244.146 32 244.833 32 245V277.625ZM83.5625 224.5L113 223.875V268.062C113 271.646 113.583 274.25 114.75 275.875C115.958 277.458 117.979 278.25 120.812 278.25C123.271 278.25 125.562 277.75 127.688 276.75C129.812 275.708 131.604 274.604 133.062 273.438C134.521 272.229 135.25 271.542 135.25 271.375V237.938L125 234.75V224.5L154.438 223.875V279.562L164.688 282.125V292.125L137.688 293L136.438 284.062C136.438 284.229 135.25 285.208 132.875 287C130.542 288.792 127.708 290.458 124.375 292C121.042 293.5 117.583 294.25 114 294.25C107.583 294.25 102.604 292.229 99.0625 288.188C95.5625 284.146 93.8125 278.542 93.8125 271.375V237.938L83.5625 234.75V224.5ZM199.75 232.688C199.75 232.521 200.75 231.542 202.75 229.75C204.75 227.958 207.062 226.333 209.688 224.875C212.354 223.375 214.979 222.625 217.562 222.625C219.604 222.625 221.521 222.792 223.312 223.125C225.104 223.458 226.5 223.812 227.5 224.188C228.542 224.562 229.188 224.792 229.438 224.875L228.438 249.5H216.938L215 238.625C212.792 238.625 210.646 239.167 208.562 240.25C206.521 241.292 204.771 242.458 203.312 243.75C201.896 245 201.188 245.667 201.188 245.75V279.562L214 282.75V293H171.75V282.75L182 279.562V237.938L171.75 234.75V224.5L198.625 223.875L199.75 232.688ZM258.562 278.938H277.25L279.375 268.062H290.938V293H235.25V281.25L267.75 237.938H250.25L248.312 247.312H236.75V223.875H290.562V235.812L258.562 278.938Z" fill="black"/>
<path d="M158 10.3923L220.603 46.5359C226.791 50.1086 230.603 56.7111 230.603 63.8564V136.144C230.603 143.289 226.791 149.891 220.603 153.464L158 189.608C151.812 193.18 144.188 193.18 138 189.608L75.3975 153.464C69.2094 149.891 65.3975 143.289 65.3975 136.144V63.8564C65.3975 56.7111 69.2094 50.1086 75.3975 46.5359L138 10.3923C144.188 6.81965 151.812 6.81965 158 10.3923Z" stroke="black" stroke-width="8"/>
<path d="M148 25L212.952 62.5V137.5L148 175L83.0481 137.5V62.5L148 25Z" fill="black"/>
</svg>
