<svg width="200" height="200" viewBox="0 0 200 200" fill="none" xmlns="http://www.w3.org/2000/svg">
<path d="M110 10.3923L172.603 46.5359C178.791 50.1086 182.603 56.7111 182.603 63.8564V136.144C182.603 143.289 178.791 149.891 172.603 153.464L110 189.608C103.812 193.18 96.188 193.18 90 189.608L27.3975 153.464C21.2094 149.891 17.3975 143.289 17.3975 136.144V63.8564C17.3975 56.7111 21.2094 50.1086 27.3975 46.5359L90 10.3923C96.188 6.81965 103.812 6.81965 110 10.3923Z" stroke="black" stroke-width="8"/>
<path d="M100 25L164.952 62.5V137.5L100 175L35.0481 137.5V62.5L100 25Z" fill="black"/>
</svg>
